<?xml version="1.0" encoding="UTF-8"?>
<!DOCTYPE svg PUBLIC "-//W3C//DTD SVG 1.1//EN" "http://www.w3.org/Graphics/SVG/1.1/DTD/svg11.dtd">
<svg xmlns="http://www.w3.org/2000/svg" version="1.1" width="1024px" height="1024px" style="shape-rendering:geometricPrecision; text-rendering:geometricPrecision; image-rendering:optimizeQuality; fill-rule:evenodd; clip-rule:evenodd" xmlns:xlink="http://www.w3.org/1999/xlink">
<g><path style="opacity:1" fill="#fefefe" d="M -0.5,-0.5 C 340.833,-0.5 682.167,-0.5 1023.5,-0.5C 1023.5,340.833 1023.5,682.167 1023.5,1023.5C 682.167,1023.5 340.833,1023.5 -0.5,1023.5C -0.5,682.167 -0.5,340.833 -0.5,-0.5 Z"/></g>
<g><path style="opacity:1" fill="#f6fefe" d="M 870.5,230.5 C 873.097,230.279 873.097,229.779 870.5,229C 868.231,228.242 866.064,228.409 864,229.5C 861.349,228.568 861.015,227.235 863,225.5C 864.049,226.517 865.216,226.684 866.5,226C 863.829,224.999 861.496,223.499 859.5,221.5C 858.269,220.349 858.269,219.183 859.5,218C 857.875,217.147 857.542,216.147 858.5,215C 857.464,213.383 856.297,213.216 855,214.5C 852.543,211.908 852.376,209.408 854.5,207C 853.663,205.989 853.33,204.822 853.5,203.5C 852.325,203.719 851.325,203.386 850.5,202.5C 850.306,200.93 850.306,199.43 850.5,198C 849.124,195.457 847.957,195.291 847,197.5C 845.888,194.722 844.055,192.555 841.5,191C 842.668,189.129 842.168,187.629 840,186.5C 839.136,190.097 837.969,189.93 836.5,186C 836.833,185.667 837.167,185.333 837.5,185C 835.779,183.473 833.779,182.473 831.5,182C 832.517,180.951 832.684,179.784 832,178.5C 831.667,179.167 831.333,179.833 831,180.5C 830.691,179.234 830.191,178.067 829.5,177C 827.5,176.333 825.5,175.667 823.5,175C 823.833,174 824.167,173 824.5,172C 823.256,171.544 822.423,172.044 822,173.5C 821.529,171.754 820.862,170.087 820,168.5C 819.282,169.451 818.449,169.617 817.5,169C 817.833,168 818.167,167 818.5,166C 817.365,165.251 816.365,165.417 815.5,166.5C 816.506,167.396 816.506,168.062 815.5,168.5C 814.719,167.271 814.219,165.938 814,164.5C 813.692,165.308 813.192,165.975 812.5,166.5C 812.874,165.229 812.208,164.062 810.5,163C 809.216,162.316 808.049,162.483 807,163.5C 805.103,161.601 802.936,160.101 800.5,159C 802.929,158.549 803.096,157.715 801,156.5C 800.333,157.167 799.667,157.833 799,158.5C 797.43,157.386 796.097,156.053 795,154.5C 793.404,156.936 791.571,157.436 789.5,156C 791.905,154.385 791.905,153.719 789.5,154C 788.126,157.41 787.459,157.243 787.5,153.5C 784.675,153.919 782.509,152.919 781,150.5C 780.751,151.624 780.251,152.624 779.5,153.5C 779.304,151.498 778.637,149.831 777.5,148.5C 775.983,150.397 774.65,152.397 773.5,154.5C 773.806,151.615 773.473,148.948 772.5,146.5C 772.5,145.5 772.5,144.5 772.5,143.5C 773.575,140.752 774.241,138.085 774.5,135.5C 776.443,137.492 777.61,139.492 778,141.5C 778.333,140.833 778.667,140.167 779,139.5C 780.439,141.275 781.439,143.275 782,145.5C 782.333,144.833 782.667,144.167 783,143.5C 783.419,144.672 784.085,145.672 785,146.5C 784.021,144.721 784.354,143.055 786,141.5C 786.333,142.833 786.667,144.167 787,145.5C 787.85,144.576 788.85,144.576 790,145.5C 790.945,145.095 791.612,144.428 792,143.5C 793.143,146.915 794.81,147.249 797,144.5C 797.617,145.449 797.451,146.282 796.5,147C 799.686,147.466 802.519,147.299 805,146.5C 805.456,147.744 804.956,148.577 803.5,149C 805.57,151.127 807.403,150.961 809,148.5C 810.261,148.759 811.261,149.426 812,150.5C 812.333,150.167 812.667,149.833 813,149.5C 813.456,150.744 812.956,151.577 811.5,152C 816.307,154.001 820.973,156.168 825.5,158.5C 825.351,159.552 825.517,160.552 826,161.5C 828.557,160.354 829.89,161.354 830,164.5C 832.173,161.723 832.673,161.89 831.5,165C 835.983,167.84 840.649,171.34 845.5,175.5C 847.864,178.699 850.03,182.032 852,185.5C 852.414,185.043 852.914,184.709 853.5,184.5C 854.747,186.006 854.747,187.506 853.5,189C 855.101,189.273 856.601,189.773 858,190.5C 858.456,191.744 857.956,192.577 856.5,193C 857.967,194.098 858.801,195.598 859,197.5C 859.333,197.167 859.667,196.833 860,196.5C 860.973,198.392 861.64,200.392 862,202.5C 862.837,200.993 864.004,200.493 865.5,201C 865.589,202.716 865.256,204.549 864.5,206.5C 865.242,207.287 866.075,207.953 867,208.5C 868.062,211.341 869.396,214.008 871,216.5C 873.109,217.035 873.609,218.035 872.5,219.5C 873.04,220.748 873.707,221.915 874.5,223C 872.5,223.333 870.5,223.667 868.5,224C 872.391,224.06 875.725,225.393 878.5,228C 876.414,231.199 873.747,232.032 870.5,230.5 Z"/></g>
<g><path style="opacity:1" fill="#3ac9bd" d="M 772.5,143.5 C 772.5,144.5 772.5,145.5 772.5,146.5C 772.66,148.199 772.494,149.866 772,151.5C 771.579,147.128 770.912,142.795 770,138.5C 769.691,139.766 769.191,140.933 768.5,142C 769.34,143.666 768.84,143.833 767,142.5C 766.773,147.897 766.106,153.231 765,158.5C 764.506,156.866 764.34,155.199 764.5,153.5C 764.5,152.167 764.5,150.833 764.5,149.5C 766.492,133.029 767.992,116.362 769,99.5C 770.279,114.176 771.445,128.843 772.5,143.5 Z"/></g>
<g><path style="opacity:1" fill="#f6fefe" d="M 763.5,147.5 C 762.788,146.261 761.788,145.761 760.5,146C 757.817,147.845 756.15,150.345 755.5,153.5C 753.866,153.968 752.7,154.968 752,156.5C 749.597,153.635 748.764,153.801 749.5,157C 746.809,156.946 744.976,158.113 744,160.5C 743.667,159.833 743.333,159.167 743,158.5C 740.242,160.437 737.575,162.104 735,163.5C 734.333,162.833 733.667,162.167 733,161.5C 733,162.833 733,164.167 733,165.5C 732.259,164.359 731.425,164.359 730.5,165.5C 729.573,167.113 728.739,168.779 728,170.5C 727.667,169.833 727.333,169.167 727,168.5C 725.488,169.257 724.154,170.257 723,171.5C 722.086,170.346 721.253,170.513 720.5,172C 720.833,172.333 721.167,172.667 721.5,173C 719.024,174.309 717.024,176.142 715.5,178.5C 714.11,180.203 712.61,180.87 711,180.5C 710.316,181.784 710.483,182.951 711.5,184C 709.671,184.273 708.171,185.107 707,186.5C 706.667,186.167 706.333,185.833 706,185.5C 704.475,189.203 701.975,192.203 698.5,194.5C 697.902,195.795 697.402,197.128 697,198.5C 695.324,198.295 693.824,199.128 692.5,201C 693.28,202.073 693.113,203.24 692,204.5C 691.086,203.346 690.253,203.513 689.5,205C 690.815,206.395 690.481,207.395 688.5,208C 689.167,208.333 689.833,208.667 690.5,209C 688.791,211.694 686.457,213.694 683.5,215C 684.022,217.289 683.355,219.456 681.5,221.5C 682.09,222.799 683.09,223.632 684.5,224C 680.748,224.375 677.414,224.875 674.5,225.5C 677.154,226.906 679.821,227.24 682.5,226.5C 682.833,226.833 683.167,227.167 683.5,227.5C 681.631,228.624 679.631,229.457 677.5,230C 680.897,231.193 684.23,231.526 687.5,231C 686.944,231.383 686.611,231.883 686.5,232.5C 679.85,233.298 673.183,233.965 666.5,234.5C 663.702,233.526 660.702,232.86 657.5,232.5C 655.407,232.486 653.574,233.152 652,234.5C 651.517,233.552 651.351,232.552 651.5,231.5C 655.697,231.571 659.863,231.237 664,230.5C 666.683,230.64 668.85,231.474 670.5,233C 668.641,230.402 668.641,227.568 670.5,224.5C 670.291,223.914 669.957,223.414 669.5,223C 671.5,221.667 673.5,220.333 675.5,219C 674.5,218 673.5,217 672.5,216C 673.449,215.383 674.282,215.549 675,216.5C 675.576,214.623 675.409,212.789 674.5,211C 678.122,208.664 680.788,205.998 682.5,203C 680.205,202.016 680.539,201.183 683.5,200.5C 684.244,199.009 684.91,197.509 685.5,196C 685.167,195.667 684.833,195.333 684.5,195C 685.742,194.689 686.742,195.189 687.5,196.5C 688.243,195.092 689.077,193.759 690,192.5C 690.424,196.19 691.258,196.357 692.5,193C 691.421,192.044 690.255,191.211 689,190.5C 687.627,190.404 686.127,190.57 684.5,191C 685.623,189.956 686.956,189.29 688.5,189C 689.191,187.933 689.691,186.766 690,185.5C 691.503,185.835 692.836,185.835 694,185.5C 694.68,182.658 696.18,179.825 698.5,177C 700.829,176.394 701.162,177.06 699.5,179C 699.611,180.722 700.111,180.888 701,179.5C 701.163,177.324 701.996,175.491 703.5,174C 703.167,173.667 702.833,173.333 702.5,173C 703.726,171.365 705.059,169.865 706.5,168.5C 707.281,169.729 707.781,171.062 708,172.5C 709.074,169.844 709.907,167.511 710.5,165.5C 711.425,164.359 712.259,164.359 713,165.5C 714.171,164.107 715.671,163.273 717.5,163C 717.167,162.667 716.833,162.333 716.5,162C 717.448,161.517 718.448,161.351 719.5,161.5C 719.343,160.127 719.51,158.793 720,157.5C 720.333,157.833 720.667,158.167 721,158.5C 723.266,154.666 723.933,154.999 723,159.5C 726.436,158.9 728.269,156.9 728.5,153.5C 730.451,153.773 731.951,153.107 733,151.5C 733.308,152.308 733.808,152.975 734.5,153.5C 735.731,152.349 735.731,151.183 734.5,150C 736.492,149.426 737.992,148.259 739,146.5C 740.309,148.891 741.309,148.891 742,146.5C 743.16,148.797 744.16,148.464 745,145.5C 745.388,146.428 746.055,147.095 747,147.5C 748.559,146.971 750.059,146.304 751.5,145.5C 753.123,146.476 754.457,145.976 755.5,144C 753.122,143.026 753.456,142.359 756.5,142C 757.191,140.933 757.691,139.766 758,138.5C 760.119,139.651 761.953,141.151 763.5,143C 763.034,144.299 763.034,145.799 763.5,147.5 Z"/></g>
<g><path style="opacity:1" fill="#eefefe" d="M 870.5,230.5 C 867.428,230.183 864.428,230.516 861.5,231.5C 863.291,232.17 864.958,232.837 866.5,233.5C 862.5,233.167 858.5,232.833 854.5,232.5C 854.5,231.833 854.167,231.5 853.5,231.5C 850.642,230.834 847.642,230.167 844.5,229.5C 846.833,228.833 849.167,228.167 851.5,227.5C 848.436,226.558 846.102,224.724 844.5,222C 845.167,221.667 845.833,221.333 846.5,221C 843.969,218.05 841.802,214.883 840,211.5C 839.667,211.833 839.333,212.167 839,212.5C 838.682,210.939 837.849,209.772 836.5,209C 836.5,208 836.5,207 836.5,206C 834.396,205.209 833.063,203.709 832.5,201.5C 831.575,202.641 830.741,202.641 830,201.5C 829.71,199.048 829.044,196.715 828,194.5C 827.667,194.833 827.333,195.167 827,195.5C 825.857,191.963 823.691,190.796 820.5,192C 820.833,191.667 821.167,191.333 821.5,191C 818.568,187.944 815.734,184.777 813,181.5C 812.667,181.833 812.333,182.167 812,182.5C 810.34,179.664 807.84,178.164 804.5,178C 805.654,177.086 805.487,176.253 804,175.5C 803.086,176.654 802.253,176.487 801.5,175C 801.833,174.667 802.167,174.333 802.5,174C 796.826,171.149 791.159,169.149 785.5,168C 784.711,164.903 783.544,164.736 782,167.5C 781,166.5 780,165.5 779,164.5C 777.798,166.677 777.298,169.011 777.5,171.5C 777.737,172.791 777.404,173.791 776.5,174.5C 775.5,167.833 774.5,161.167 773.5,154.5C 774.65,152.397 775.983,150.397 777.5,148.5C 778.637,149.831 779.304,151.498 779.5,153.5C 780.251,152.624 780.751,151.624 781,150.5C 782.509,152.919 784.675,153.919 787.5,153.5C 787.459,157.243 788.126,157.41 789.5,154C 791.905,153.719 791.905,154.385 789.5,156C 791.571,157.436 793.404,156.936 795,154.5C 796.097,156.053 797.43,157.386 799,158.5C 799.667,157.833 800.333,157.167 801,156.5C 803.096,157.715 802.929,158.549 800.5,159C 802.936,160.101 805.103,161.601 807,163.5C 808.049,162.483 809.216,162.316 810.5,163C 812.208,164.062 812.874,165.229 812.5,166.5C 813.192,165.975 813.692,165.308 814,164.5C 814.219,165.938 814.719,167.271 815.5,168.5C 816.506,168.062 816.506,167.396 815.5,166.5C 816.365,165.417 817.365,165.251 818.5,166C 818.167,167 817.833,168 817.5,169C 818.449,169.617 819.282,169.451 820,168.5C 820.862,170.087 821.529,171.754 822,173.5C 822.423,172.044 823.256,171.544 824.5,172C 824.167,173 823.833,174 823.5,175C 825.5,175.667 827.5,176.333 829.5,177C 830.191,178.067 830.691,179.234 831,180.5C 831.333,179.833 831.667,179.167 832,178.5C 832.684,179.784 832.517,180.951 831.5,182C 833.779,182.473 835.779,183.473 837.5,185C 837.167,185.333 836.833,185.667 836.5,186C 837.969,189.93 839.136,190.097 840,186.5C 842.168,187.629 842.668,189.129 841.5,191C 844.055,192.555 845.888,194.722 847,197.5C 847.957,195.291 849.124,195.457 850.5,198C 850.306,199.43 850.306,200.93 850.5,202.5C 851.325,203.386 852.325,203.719 853.5,203.5C 853.33,204.822 853.663,205.989 854.5,207C 852.376,209.408 852.543,211.908 855,214.5C 856.297,213.216 857.464,213.383 858.5,215C 857.542,216.147 857.875,217.147 859.5,218C 858.269,219.183 858.269,220.349 859.5,221.5C 861.496,223.499 863.829,224.999 866.5,226C 865.216,226.684 864.049,226.517 863,225.5C 861.015,227.235 861.349,228.568 864,229.5C 866.064,228.409 868.231,228.242 870.5,229C 873.097,229.779 873.097,230.279 870.5,230.5 Z"/></g>
<g><path style="opacity:1" fill="#eafefd" d="M 763.5,147.5 C 763.328,148.492 763.662,149.158 764.5,149.5C 764.5,150.833 764.5,152.167 764.5,153.5C 763.187,161.38 761.853,169.38 760.5,177.5C 759.883,177.389 759.383,177.056 759,176.5C 758.667,173.833 758.333,171.167 758,168.5C 757.971,171.367 757.138,173.867 755.5,176C 755.833,176.333 756.167,176.667 756.5,177C 754.671,177.273 753.171,178.107 752,179.5C 751.282,178.549 750.449,178.383 749.5,179C 746.412,181.978 743.079,183.645 739.5,184C 737.157,185.667 735.157,187.667 733.5,190C 732.5,190.333 731.5,190.667 730.5,191C 730.833,191.333 731.167,191.667 731.5,192C 730.167,192.667 729.167,193.667 728.5,195C 726.347,196.628 724.013,197.961 721.5,199C 721.833,199.333 722.167,199.667 722.5,200C 721.167,200.333 719.833,200.667 718.5,201C 720.301,201.317 720.634,201.984 719.5,203C 718.552,203.483 717.552,203.649 716.5,203.5C 716.863,205.911 715.863,207.411 713.5,208C 713.833,208.333 714.167,208.667 714.5,209C 712.986,211.347 710.986,213.18 708.5,214.5C 706.997,218.001 705.33,220.834 703.5,223C 705.167,223.333 706.833,223.667 708.5,224C 707.062,224.219 705.729,224.719 704.5,225.5C 706.655,226.001 708.322,227.001 709.5,228.5C 702.676,229.634 696.01,230.967 689.5,232.5C 688.5,232.5 687.5,232.5 686.5,232.5C 686.611,231.883 686.944,231.383 687.5,231C 684.23,231.526 680.897,231.193 677.5,230C 679.631,229.457 681.631,228.624 683.5,227.5C 683.167,227.167 682.833,226.833 682.5,226.5C 679.821,227.24 677.154,226.906 674.5,225.5C 677.414,224.875 680.748,224.375 684.5,224C 683.09,223.632 682.09,222.799 681.5,221.5C 683.355,219.456 684.022,217.289 683.5,215C 686.457,213.694 688.791,211.694 690.5,209C 689.833,208.667 689.167,208.333 688.5,208C 690.481,207.395 690.815,206.395 689.5,205C 690.253,203.513 691.086,203.346 692,204.5C 693.113,203.24 693.28,202.073 692.5,201C 693.824,199.128 695.324,198.295 697,198.5C 697.402,197.128 697.902,195.795 698.5,194.5C 701.975,192.203 704.475,189.203 706,185.5C 706.333,185.833 706.667,186.167 707,186.5C 708.171,185.107 709.671,184.273 711.5,184C 710.483,182.951 710.316,181.784 711,180.5C 712.61,180.87 714.11,180.203 715.5,178.5C 717.024,176.142 719.024,174.309 721.5,173C 721.167,172.667 720.833,172.333 720.5,172C 721.253,170.513 722.086,170.346 723,171.5C 724.154,170.257 725.488,169.257 727,168.5C 727.333,169.167 727.667,169.833 728,170.5C 728.739,168.779 729.573,167.113 730.5,165.5C 731.425,164.359 732.259,164.359 733,165.5C 733,164.167 733,162.833 733,161.5C 733.667,162.167 734.333,162.833 735,163.5C 737.575,162.104 740.242,160.437 743,158.5C 743.333,159.167 743.667,159.833 744,160.5C 744.976,158.113 746.809,156.946 749.5,157C 748.764,153.801 749.597,153.635 752,156.5C 752.7,154.968 753.866,153.968 755.5,153.5C 756.15,150.345 757.817,147.845 760.5,146C 761.788,145.761 762.788,146.261 763.5,147.5 Z"/></g>
<g><path style="opacity:1" fill="#e3fefc" d="M 853.5,231.5 C 847.391,231.623 841.391,230.956 835.5,229.5C 834.5,228.833 833.5,228.167 832.5,227.5C 834.823,226.942 837.157,226.275 839.5,225.5C 838.624,224.749 837.624,224.249 836.5,224C 837.167,223 837.833,222 838.5,221C 834.76,215.86 830.927,210.36 827,204.5C 826.667,204.833 826.333,205.167 826,205.5C 825.598,204.128 825.098,202.795 824.5,201.5C 823.726,200.289 822.893,200.289 822,201.5C 820.975,197.945 818.975,194.945 816,192.5C 814.927,193.28 813.76,193.113 812.5,192C 812.957,191.586 813.291,191.086 813.5,190.5C 812.095,188.349 810.261,186.682 808,185.5C 807.667,186.167 807.333,186.833 807,187.5C 804.702,185.5 802.535,183.333 800.5,181C 798.833,180.667 797.167,180.333 795.5,180C 796.167,179.667 796.833,179.333 797.5,179C 790.843,177.292 785.51,174.959 781.5,172C 780.91,170.491 780.244,168.991 779.5,167.5C 778.828,168.949 778.161,170.282 777.5,171.5C 777.298,169.011 777.798,166.677 779,164.5C 780,165.5 781,166.5 782,167.5C 783.544,164.736 784.711,164.903 785.5,168C 791.159,169.149 796.826,171.149 802.5,174C 802.167,174.333 801.833,174.667 801.5,175C 802.253,176.487 803.086,176.654 804,175.5C 805.487,176.253 805.654,177.086 804.5,178C 807.84,178.164 810.34,179.664 812,182.5C 812.333,182.167 812.667,181.833 813,181.5C 815.734,184.777 818.568,187.944 821.5,191C 821.167,191.333 820.833,191.667 820.5,192C 823.691,190.796 825.857,191.963 827,195.5C 827.333,195.167 827.667,194.833 828,194.5C 829.044,196.715 829.71,199.048 830,201.5C 830.741,202.641 831.575,202.641 832.5,201.5C 833.063,203.709 834.396,205.209 836.5,206C 836.5,207 836.5,208 836.5,209C 837.849,209.772 838.682,210.939 839,212.5C 839.333,212.167 839.667,211.833 840,211.5C 841.802,214.883 843.969,218.05 846.5,221C 845.833,221.333 845.167,221.667 844.5,222C 846.102,224.724 848.436,226.558 851.5,227.5C 849.167,228.167 846.833,228.833 844.5,229.5C 847.642,230.167 850.642,230.834 853.5,231.5 Z"/></g>
<g><path style="opacity:1" fill="#d9fdfb" d="M 832.5,227.5 C 829.253,226.748 825.919,226.248 822.5,226C 823.949,224.883 825.616,224.216 827.5,224C 826.769,221.405 825.102,219.739 822.5,219C 822.833,218.667 823.167,218.333 823.5,218C 821.114,213.315 818.114,209.982 814.5,208C 815.833,206.16 815.666,205.66 814,206.5C 811.475,203.653 808.308,201.82 804.5,201C 803.366,199.984 803.699,199.317 805.5,199C 800.443,196.185 796.276,193.019 793,189.5C 792.667,189.833 792.333,190.167 792,190.5C 790.26,189.284 789.26,187.618 789,185.5C 787.098,186.386 785.265,186.053 783.5,184.5C 783.081,175.624 781.414,175.29 778.5,183.5C 777.833,180.5 777.167,177.5 776.5,174.5C 777.404,173.791 777.737,172.791 777.5,171.5C 778.161,170.282 778.828,168.949 779.5,167.5C 780.244,168.991 780.91,170.491 781.5,172C 785.51,174.959 790.843,177.292 797.5,179C 796.833,179.333 796.167,179.667 795.5,180C 797.167,180.333 798.833,180.667 800.5,181C 802.535,183.333 804.702,185.5 807,187.5C 807.333,186.833 807.667,186.167 808,185.5C 810.261,186.682 812.095,188.349 813.5,190.5C 813.291,191.086 812.957,191.586 812.5,192C 813.76,193.113 814.927,193.28 816,192.5C 818.975,194.945 820.975,197.945 822,201.5C 822.893,200.289 823.726,200.289 824.5,201.5C 825.098,202.795 825.598,204.128 826,205.5C 826.333,205.167 826.667,204.833 827,204.5C 830.927,210.36 834.76,215.86 838.5,221C 837.833,222 837.167,223 836.5,224C 837.624,224.249 838.624,224.749 839.5,225.5C 837.157,226.275 834.823,226.942 832.5,227.5 Z"/></g>
<g><path style="opacity:1" fill="#d3fdfa" d="M 760.5,177.5 C 755.902,206.765 738.902,223.765 709.5,228.5C 708.322,227.001 706.655,226.001 704.5,225.5C 705.729,224.719 707.062,224.219 708.5,224C 706.833,223.667 705.167,223.333 703.5,223C 705.33,220.834 706.997,218.001 708.5,214.5C 710.986,213.18 712.986,211.347 714.5,209C 714.167,208.667 713.833,208.333 713.5,208C 715.863,207.411 716.863,205.911 716.5,203.5C 717.552,203.649 718.552,203.483 719.5,203C 720.634,201.984 720.301,201.317 718.5,201C 719.833,200.667 721.167,200.333 722.5,200C 722.167,199.667 721.833,199.333 721.5,199C 724.013,197.961 726.347,196.628 728.5,195C 729.167,193.667 730.167,192.667 731.5,192C 731.167,191.667 730.833,191.333 730.5,191C 731.5,190.667 732.5,190.333 733.5,190C 735.157,187.667 737.157,185.667 739.5,184C 743.079,183.645 746.412,181.978 749.5,179C 750.449,178.383 751.282,178.549 752,179.5C 753.171,178.107 754.671,177.273 756.5,177C 756.167,176.667 755.833,176.333 755.5,176C 757.138,173.867 757.971,171.367 758,168.5C 758.333,171.167 758.667,173.833 759,176.5C 759.383,177.056 759.883,177.389 760.5,177.5 Z"/></g>
<g><path style="opacity:1" fill="#cdfcf9" d="M 832.5,227.5 C 833.5,228.167 834.5,228.833 835.5,229.5C 821.159,227.985 808.159,223.151 796.5,215C 786.749,206.668 780.749,196.168 778.5,183.5C 781.414,175.29 783.081,175.624 783.5,184.5C 785.265,186.053 787.098,186.386 789,185.5C 789.26,187.618 790.26,189.284 792,190.5C 792.333,190.167 792.667,189.833 793,189.5C 796.276,193.019 800.443,196.185 805.5,199C 803.699,199.317 803.366,199.984 804.5,201C 808.308,201.82 811.475,203.653 814,206.5C 815.666,205.66 815.833,206.16 814.5,208C 818.114,209.982 821.114,213.315 823.5,218C 823.167,218.333 822.833,218.667 822.5,219C 825.102,219.739 826.769,221.405 827.5,224C 825.616,224.216 823.949,224.883 822.5,226C 825.919,226.248 829.253,226.748 832.5,227.5 Z"/></g>
<g><path style="opacity:1" fill="#7cf6ef" d="M 797.5,246.5 C 797.5,247.167 797.5,247.833 797.5,248.5C 796.768,247.192 795.934,245.858 795,244.5C 793.086,245.676 793.252,246.676 795.5,247.5C 794.675,248.386 793.675,248.719 792.5,248.5C 792.48,252.513 791.147,253.18 788.5,250.5C 786.793,254.136 785.626,254.136 785,250.5C 783.312,251.325 783.145,252.325 784.5,253.5C 783.5,255.5 782.5,257.5 781.5,259.5C 781.709,260.086 782.043,260.586 782.5,261C 780.613,262.969 779.28,265.302 778.5,268C 776.77,269.852 775.604,269.686 775,267.5C 774.882,270.371 774.216,273.038 773,275.5C 772.667,274.833 772.333,274.167 772,273.5C 770.181,275.536 768.347,275.703 766.5,274C 766.833,273.667 767.167,273.333 767.5,273C 765.833,272.667 764.167,272.333 762.5,272C 762.167,271 761.833,270 761.5,269C 763.929,268.549 764.096,267.715 762,266.5C 760.989,267.337 759.822,267.67 758.5,267.5C 756.018,262.575 754.185,257.575 753,252.5C 752.667,253.167 752.333,253.833 752,254.5C 751.355,253.354 750.522,252.354 749.5,251.5C 749.709,250.914 750.043,250.414 750.5,250C 746.219,246.699 741.719,243.865 737,241.5C 736.626,240.584 736.126,239.75 735.5,239C 739.459,234.691 738.793,233.858 733.5,236.5C 732.069,236.023 730.736,235.357 729.5,234.5C 731.214,233.157 733.548,231.99 736.5,231C 736.167,230.667 735.833,230.333 735.5,230C 736.448,229.517 737.448,229.351 738.5,229.5C 738.343,228.127 738.51,226.793 739,225.5C 739.333,226.167 739.667,226.833 740,227.5C 740.667,226.167 741.333,226.167 742,227.5C 743.046,225.91 744.213,224.41 745.5,223C 745.167,222.667 744.833,222.333 744.5,222C 747.388,220.561 750.388,218.228 753.5,215C 753.167,214.667 752.833,214.333 752.5,214C 755.135,212.689 757.469,211.022 759.5,209C 760.833,208.333 760.833,207.667 759.5,207C 760.549,206.508 761.549,206.674 762.5,207.5C 763.427,205.887 764.261,204.221 765,202.5C 766.333,203.833 767.667,203.833 769,202.5C 769.219,203.938 769.719,205.271 770.5,206.5C 770.833,205.833 771.167,205.167 771.5,204.5C 774.116,206.803 777.116,208.136 780.5,208.5C 780.854,210.541 780.854,212.374 780.5,214C 781.891,215.02 783.391,215.853 785,216.5C 787.15,219.918 789.483,223.251 792,226.5C 792.333,226.167 792.667,225.833 793,225.5C 793.333,226.833 793.667,228.167 794,229.5C 794.414,229.043 794.914,228.709 795.5,228.5C 798.259,230.472 801.093,231.472 804,231.5C 804.333,230.833 804.667,230.167 805,229.5C 805.667,230.833 806.333,232.167 807,233.5C 808.281,233.381 809.448,233.881 810.5,235C 809.299,235.903 808.465,237.069 808,238.5C 807.223,236.299 806.056,236.299 804.5,238.5C 805.589,242.259 804.755,242.926 802,240.5C 800.278,240.611 800.112,241.111 801.5,242C 799.593,243.069 798.259,244.569 797.5,246.5 Z"/></g>
<g><path style="opacity:1" fill="#72f2eb" d="M 797.5,246.5 C 798.259,244.569 799.593,243.069 801.5,242C 800.112,241.111 800.278,240.611 802,240.5C 804.755,242.926 805.589,242.259 804.5,238.5C 806.056,236.299 807.223,236.299 808,238.5C 808.465,237.069 809.299,235.903 810.5,235C 809.448,233.881 808.281,233.381 807,233.5C 806.333,232.167 805.667,230.833 805,229.5C 804.667,230.167 804.333,230.833 804,231.5C 801.093,231.472 798.259,230.472 795.5,228.5C 794.914,228.709 794.414,229.043 794,229.5C 793.667,228.167 793.333,226.833 793,225.5C 792.667,225.833 792.333,226.167 792,226.5C 789.483,223.251 787.15,219.918 785,216.5C 783.391,215.853 781.891,215.02 780.5,214C 780.854,212.374 780.854,210.541 780.5,208.5C 777.116,208.136 774.116,206.803 771.5,204.5C 771.167,205.167 770.833,205.833 770.5,206.5C 769.719,205.271 769.219,203.938 769,202.5C 767.667,203.833 766.333,203.833 765,202.5C 764.261,204.221 763.427,205.887 762.5,207.5C 761.549,206.674 760.549,206.508 759.5,207C 760.833,207.667 760.833,208.333 759.5,209C 757.469,211.022 755.135,212.689 752.5,214C 752.833,214.333 753.167,214.667 753.5,215C 750.388,218.228 747.388,220.561 744.5,222C 744.833,222.333 745.167,222.667 745.5,223C 744.213,224.41 743.046,225.91 742,227.5C 741.333,226.167 740.667,226.167 740,227.5C 739.667,226.833 739.333,226.167 739,225.5C 738.51,226.793 738.343,228.127 738.5,229.5C 737.448,229.351 736.448,229.517 735.5,230C 735.833,230.333 736.167,230.667 736.5,231C 733.548,231.99 731.214,233.157 729.5,234.5C 730.736,235.357 732.069,236.023 733.5,236.5C 738.793,233.858 739.459,234.691 735.5,239C 736.126,239.75 736.626,240.584 737,241.5C 741.719,243.865 746.219,246.699 750.5,250C 750.043,250.414 749.709,250.914 749.5,251.5C 750.522,252.354 751.355,253.354 752,254.5C 752.333,253.833 752.667,253.167 753,252.5C 754.185,257.575 756.018,262.575 758.5,267.5C 759.822,267.67 760.989,267.337 762,266.5C 764.096,267.715 763.929,268.549 761.5,269C 761.833,270 762.167,271 762.5,272C 764.167,272.333 765.833,272.667 767.5,273C 767.167,273.333 766.833,273.667 766.5,274C 768.347,275.703 770.181,275.536 772,273.5C 772.333,274.167 772.667,274.833 773,275.5C 774.216,273.038 774.882,270.371 775,267.5C 775.604,269.686 776.77,269.852 778.5,268C 779.28,265.302 780.613,262.969 782.5,261C 782.043,260.586 781.709,260.086 781.5,259.5C 782.5,257.5 783.5,255.5 784.5,253.5C 783.145,252.325 783.312,251.325 785,250.5C 785.626,254.136 786.793,254.136 788.5,250.5C 791.147,253.18 792.48,252.513 792.5,248.5C 793.675,248.719 794.675,248.386 795.5,247.5C 793.252,246.676 793.086,245.676 795,244.5C 795.934,245.858 796.768,247.192 797.5,248.5C 797.238,250.564 796.071,251.897 794,252.5C 793.316,253.784 793.483,254.951 794.5,256C 791.5,257.667 788.5,259.333 785.5,261C 785.848,263.055 785.181,265.055 783.5,267C 783.833,267.333 784.167,267.667 784.5,268C 782.913,268.862 781.246,269.529 779.5,270C 780.5,270.333 781.5,270.667 782.5,271C 781.529,272.204 780.529,272.704 779.5,272.5C 779.931,273.293 780.265,274.127 780.5,275C 778.846,279.634 776.846,284.134 774.5,288.5C 774.709,289.086 775.043,289.586 775.5,290C 773,290.375 770.667,291.208 768.5,292.5C 767.719,291.271 767.219,289.938 767,288.5C 766.667,289.5 766.333,290.5 766,291.5C 763.174,288.672 761.174,285.338 760,281.5C 759.23,280.402 758.397,280.402 757.5,281.5C 749.709,263.368 736.375,251.701 717.5,246.5C 718.678,245.001 720.345,244.001 722.5,243.5C 720.771,242.403 719.104,241.237 717.5,240C 720.743,239.347 721.577,237.847 720,235.5C 718.719,236.647 718.386,236.313 719,234.5C 719.853,232.875 720.853,232.542 722,233.5C 722.359,230.456 723.026,230.122 724,232.5C 725.487,231.747 725.654,230.914 724.5,230C 728.349,230.076 731.349,228.576 733.5,225.5C 734.086,225.709 734.586,226.043 735,226.5C 736.232,223.245 738.232,222.912 741,225.5C 742.295,221.236 744.795,217.902 748.5,215.5C 747.145,214.325 747.312,213.325 749,212.5C 749.333,212.833 749.667,213.167 750,213.5C 750.685,210.943 752.185,209.109 754.5,208C 753.422,207.326 752.755,206.326 752.5,205C 753.299,202.851 754.133,200.684 755,198.5C 756.813,198.253 758.647,197.92 760.5,197.5C 762.171,194.673 764.004,192.006 766,189.5C 768.324,190.845 770.658,191.178 773,190.5C 774.044,191.623 774.71,192.956 775,194.5C 776.067,195.191 777.234,195.691 778.5,196C 777.833,196.333 777.167,196.667 776.5,197C 780.956,200.934 784.122,205.768 786,211.5C 787,210.833 788,210.167 789,209.5C 790.667,211.167 792.333,212.833 794,214.5C 794.667,215.833 794.667,217.167 794,218.5C 793.346,217.304 792.846,217.304 792.5,218.5C 793.325,219.386 794.325,219.719 795.5,219.5C 795.33,220.822 795.663,221.989 796.5,223C 800.8,224.057 804.3,226.224 807,229.5C 807.667,226.833 808.333,226.833 809,229.5C 810,228.167 811,228.167 812,229.5C 814.021,232.564 815.688,235.564 817,238.5C 816.667,238.167 816.333,237.833 816,237.5C 815.517,238.448 815.351,239.448 815.5,240.5C 810.502,241.83 805.836,243.997 801.5,247C 800.072,247.579 798.738,247.412 797.5,246.5 Z"/></g>
<g><path style="opacity:1" fill="#32cfc5" d="M 854.5,232.5 C 858.5,232.833 862.5,233.167 866.5,233.5C 880.479,234.832 894.479,235.999 908.5,237C 893.826,237.786 879.16,238.62 864.5,239.5C 863.167,239.5 861.833,239.5 860.5,239.5C 856.694,239.588 853.027,238.921 849.5,237.5C 851.657,236.21 853.99,235.376 856.5,235C 855.377,233.956 854.044,233.29 852.5,233C 853.094,232.536 853.761,232.369 854.5,232.5 Z"/></g>
<g><path style="opacity:1" fill="#44d3ca" d="M 686.5,232.5 C 687.5,232.5 688.5,232.5 689.5,232.5C 690.552,232.351 691.552,232.517 692.5,233C 687.719,233.518 687.386,234.852 691.5,237C 687.633,238.987 687.633,239.487 691.5,238.5C 692.711,239.274 692.711,240.107 691.5,241C 696.541,242.008 696.208,242.508 690.5,242.5C 687.167,242.167 683.833,241.833 680.5,241.5C 671.486,240.975 662.486,240.309 653.5,239.5C 645.097,239.87 636.764,239.37 628.5,238C 641.232,236.99 653.899,235.823 666.5,234.5C 673.183,233.965 679.85,233.298 686.5,232.5 Z"/></g>
<g><path style="opacity:1" fill="#f6fefe" d="M 860.5,239.5 C 861.833,239.5 863.167,239.5 864.5,239.5C 864.389,240.117 864.056,240.617 863.5,241C 866.833,241.333 870.167,241.667 873.5,242C 871.428,243.273 870.095,245.107 869.5,247.5C 871.991,248.541 871.991,249.374 869.5,250C 873.386,250.579 873.386,251.412 869.5,252.5C 868.749,253.376 868.249,254.376 868,255.5C 867.667,255.167 867.333,254.833 867,254.5C 866.424,256.377 866.591,258.211 867.5,260C 866.137,263.09 864.97,266.256 864,269.5C 863.667,268.833 863.333,268.167 863,267.5C 862.186,269.282 861.019,270.782 859.5,272C 860.76,273.113 861.927,273.28 863,272.5C 864.365,273.593 864.699,274.926 864,276.5C 863.549,274.071 862.715,273.904 861.5,276C 862.5,278.091 861.833,279.757 859.5,281C 859.833,281.333 860.167,281.667 860.5,282C 859.167,282.667 857.833,283.333 856.5,284C 857.833,285 859.167,286 860.5,287C 859.333,288.167 858.167,289.333 857,290.5C 855.989,289.663 854.822,289.33 853.5,289.5C 852.341,290.772 851.341,292.772 850.5,295.5C 850.694,297.07 850.694,298.57 850.5,300C 848.729,302.113 847.229,301.947 846,299.5C 844.647,300.685 843.48,302.019 842.5,303.5C 843.376,304.251 844.376,304.751 845.5,305C 843.888,305.72 842.388,305.554 841,304.5C 842.101,306.792 841.268,308.292 838.5,309C 840.686,309.604 840.852,310.77 839,312.5C 838.692,311.692 838.192,311.025 837.5,310.5C 837.306,312.042 836.139,313.375 834,314.5C 833.333,313.833 832.667,313.167 832,312.5C 831.682,314.061 830.849,315.228 829.5,316C 830.167,316.333 830.833,316.667 831.5,317C 828.809,316.946 826.976,318.113 826,320.5C 825.667,320.167 825.333,319.833 825,319.5C 823.234,321.596 821.901,323.929 821,326.5C 820.706,321.441 819.539,321.274 817.5,326C 817.833,326.333 818.167,326.667 818.5,327C 814.388,330.597 813.722,330.097 816.5,325.5C 816.192,324.692 815.692,324.025 815,323.5C 814.228,324.849 813.061,325.682 811.5,326C 812.451,326.718 812.617,327.551 812,328.5C 809.337,333.114 807.67,333.114 807,328.5C 803.998,331.45 800.831,333.45 797.5,334.5C 796.5,331.833 795.5,331.833 794.5,334.5C 797.167,335.5 797.167,336.5 794.5,337.5C 791.352,336.86 791.019,335.86 793.5,334.5C 792.609,333.41 791.609,333.41 790.5,334.5C 789.808,333.975 789.308,333.308 789,332.5C 787.39,334.578 786.39,336.578 786,338.5C 783.731,336.731 781.398,336.065 779,336.5C 778.017,334.429 777.35,332.429 777,330.5C 775.405,332.425 775.238,334.425 776.5,336.5C 775.975,337.192 775.308,337.692 774.5,338C 776.917,339.673 776.917,341.506 774.5,343.5C 773.676,340.215 773.176,336.882 773,333.5C 772.823,337.356 772.323,341.023 771.5,344.5C 771.696,335.794 772.363,327.127 773.5,318.5C 774.222,318.082 774.722,317.416 775,316.5C 775.333,316.833 775.667,317.167 776,317.5C 776.333,320.5 776.667,323.5 777,326.5C 778.668,322.763 780.001,322.763 781,326.5C 782.275,322.908 783.942,322.908 786,326.5C 788.26,324.127 791.093,322.793 794.5,322.5C 795.251,321.624 795.751,320.624 796,319.5C 796.388,320.428 797.055,321.095 798,321.5C 799.15,320.576 800.15,320.576 801,321.5C 802.188,320.437 802.688,319.103 802.5,317.5C 804.451,317.773 805.951,317.107 807,315.5C 808.873,316.089 810.54,315.422 812,313.5C 812.333,313.833 812.667,314.167 813,314.5C 814.113,313.24 814.28,312.073 813.5,311C 814.766,310.691 815.933,310.191 817,309.5C 817.333,309.833 817.667,310.167 818,310.5C 819.763,308.281 821.763,306.281 824,304.5C 827.11,305.673 827.277,305.173 824.5,303C 826.329,302.727 827.829,301.893 829,300.5C 829.333,300.833 829.667,301.167 830,301.5C 829.57,299.873 829.404,298.373 829.5,297C 832.833,296.333 834.833,294.333 835.5,291C 836.448,290.517 837.448,290.351 838.5,290.5C 838.351,289.448 838.517,288.448 839,287.5C 839.654,286.304 840.154,286.304 840.5,287.5C 839.572,288.768 839.405,290.101 840,291.5C 842.446,288.949 842.613,286.449 840.5,284C 841.9,282.562 843.567,281.729 845.5,281.5C 845.343,280.127 845.51,278.793 846,277.5C 847.135,277.273 848.302,276.94 849.5,276.5C 849.167,275.833 848.833,275.167 848.5,274.5C 849.577,272.271 850.244,269.937 850.5,267.5C 853.276,267.911 853.943,267.078 852.5,265C 854.134,262.121 855.468,259.121 856.5,256C 855.833,255.667 855.167,255.333 854.5,255C 856.567,253.343 857.9,251.676 858.5,250C 854.668,247.066 855.002,245.566 859.5,245.5C 854.312,243.816 848.978,243.149 843.5,243.5C 842.761,243.631 842.094,243.464 841.5,243C 843.058,242.79 844.391,242.29 845.5,241.5C 850.75,241.698 855.75,241.031 860.5,239.5 Z"/></g>
<g><path style="opacity:1" fill="#e1fefc" d="M 845.5,241.5 C 844.391,242.29 843.058,242.79 841.5,243C 842.094,243.464 842.761,243.631 843.5,243.5C 844.596,246.012 843.762,248.012 841,249.5C 840.727,251.101 840.227,252.601 839.5,254C 839.833,254.333 840.167,254.667 840.5,255C 837.536,255.84 837.203,256.84 839.5,258C 837.51,260.293 835.51,262.626 833.5,265C 833.835,266.503 833.835,267.836 833.5,269C 832.234,269.309 831.067,269.809 830,270.5C 829.529,272.246 828.862,273.913 828,275.5C 825.555,276.977 823.388,278.81 821.5,281C 822.28,282.073 822.113,283.24 821,284.5C 819.636,283.742 818.469,284.242 817.5,286C 818.517,287.049 818.684,288.216 818,289.5C 817,289.167 816,288.833 815,288.5C 813.054,292.275 810.554,295.609 807.5,298.5C 806.28,299.711 805.113,299.711 804,298.5C 801.653,301.34 798.82,303.673 795.5,305.5C 793.898,304.45 793.065,305.117 793,307.5C 792.586,307.043 792.086,306.709 791.5,306.5C 788.125,308.188 784.791,309.854 781.5,311.5C 781.649,310.448 781.483,309.448 781,308.5C 780.784,310.384 780.117,312.051 779,313.5C 778.667,310.167 778.333,306.833 778,303.5C 777.617,302.944 777.117,302.611 776.5,302.5C 776.833,300.5 777.167,298.5 777.5,296.5C 778.222,296.082 778.722,295.416 779,294.5C 780.744,295.649 780.911,296.983 779.5,298.5C 779.808,299.308 780.308,299.975 781,300.5C 783.441,298.031 786.274,296.198 789.5,295C 789.167,294.667 788.833,294.333 788.5,294C 790.492,293.426 791.992,292.259 793,290.5C 793.718,291.451 794.551,291.617 795.5,291C 800.619,286.503 805.452,282.336 810,278.5C 811.113,277.24 811.28,276.073 810.5,275C 812.904,274.492 813.571,273.325 812.5,271.5C 813.651,270.269 814.817,270.269 816,271.5C 815.667,270.167 815.333,268.833 815,267.5C 816.011,268.337 817.178,268.67 818.5,268.5C 818.992,264.078 820.992,261.411 824.5,260.5C 823.61,259.289 823.61,257.955 824.5,256.5C 825.776,252.979 827.776,249.979 830.5,247.5C 833.146,248.362 835.813,248.195 838.5,247C 835.118,246.824 831.785,246.324 828.5,245.5C 829.602,244.824 830.602,244.158 831.5,243.5C 836.201,243.043 840.868,242.376 845.5,241.5 Z"/></g>
<g><path style="opacity:1" fill="#eefefe" d="M 843.5,243.5 C 848.978,243.149 854.312,243.816 859.5,245.5C 855.002,245.566 854.668,247.066 858.5,250C 857.9,251.676 856.567,253.343 854.5,255C 855.167,255.333 855.833,255.667 856.5,256C 855.468,259.121 854.134,262.121 852.5,265C 853.943,267.078 853.276,267.911 850.5,267.5C 850.244,269.937 849.577,272.271 848.5,274.5C 848.833,275.167 849.167,275.833 849.5,276.5C 848.302,276.94 847.135,277.273 846,277.5C 845.51,278.793 845.343,280.127 845.5,281.5C 843.567,281.729 841.9,282.562 840.5,284C 842.613,286.449 842.446,288.949 840,291.5C 839.405,290.101 839.572,288.768 840.5,287.5C 840.154,286.304 839.654,286.304 839,287.5C 838.517,288.448 838.351,289.448 838.5,290.5C 837.448,290.351 836.448,290.517 835.5,291C 834.833,294.333 832.833,296.333 829.5,297C 829.404,298.373 829.57,299.873 830,301.5C 829.667,301.167 829.333,300.833 829,300.5C 827.829,301.893 826.329,302.727 824.5,303C 827.277,305.173 827.11,305.673 824,304.5C 821.763,306.281 819.763,308.281 818,310.5C 817.667,310.167 817.333,309.833 817,309.5C 815.933,310.191 814.766,310.691 813.5,311C 814.28,312.073 814.113,313.24 813,314.5C 812.667,314.167 812.333,313.833 812,313.5C 810.54,315.422 808.873,316.089 807,315.5C 805.951,317.107 804.451,317.773 802.5,317.5C 802.688,319.103 802.188,320.437 801,321.5C 800.15,320.576 799.15,320.576 798,321.5C 797.055,321.095 796.388,320.428 796,319.5C 795.751,320.624 795.251,321.624 794.5,322.5C 791.093,322.793 788.26,324.127 786,326.5C 783.942,322.908 782.275,322.908 781,326.5C 780.001,322.763 778.668,322.763 777,326.5C 776.667,323.5 776.333,320.5 776,317.5C 775.667,317.167 775.333,316.833 775,316.5C 774.722,317.416 774.222,318.082 773.5,318.5C 773.674,316.139 774.007,313.806 774.5,311.5C 774.99,308.345 775.656,305.345 776.5,302.5C 777.117,302.611 777.617,302.944 778,303.5C 778.333,306.833 778.667,310.167 779,313.5C 780.117,312.051 780.784,310.384 781,308.5C 781.483,309.448 781.649,310.448 781.5,311.5C 784.791,309.854 788.125,308.188 791.5,306.5C 792.086,306.709 792.586,307.043 793,307.5C 793.065,305.117 793.898,304.45 795.5,305.5C 798.82,303.673 801.653,301.34 804,298.5C 805.113,299.711 806.28,299.711 807.5,298.5C 810.554,295.609 813.054,292.275 815,288.5C 816,288.833 817,289.167 818,289.5C 818.684,288.216 818.517,287.049 817.5,286C 818.469,284.242 819.636,283.742 821,284.5C 822.113,283.24 822.28,282.073 821.5,281C 823.388,278.81 825.555,276.977 828,275.5C 828.862,273.913 829.529,272.246 830,270.5C 831.067,269.809 832.234,269.309 833.5,269C 833.835,267.836 833.835,266.503 833.5,265C 835.51,262.626 837.51,260.293 839.5,258C 837.203,256.84 837.536,255.84 840.5,255C 840.167,254.667 839.833,254.333 839.5,254C 840.227,252.601 840.727,251.101 841,249.5C 843.762,248.012 844.596,246.012 843.5,243.5 Z"/></g>
<g><path style="opacity:1" fill="#f1fefe" d="M 653.5,239.5 C 662.486,240.309 671.486,240.975 680.5,241.5C 682.593,242.744 684.593,244.244 686.5,246C 685.833,246.333 685.167,246.667 684.5,247C 686.046,249.257 687.712,251.424 689.5,253.5C 688.998,254.716 688.665,255.883 688.5,257C 691.167,257.667 691.167,258.333 688.5,259C 689.167,259.333 689.833,259.667 690.5,260C 690.167,261 689.833,262 689.5,263C 692.7,265.547 693.367,268.38 691.5,271.5C 695.364,272.95 695.364,274.45 691.5,276C 695.025,275.984 698.358,276.151 701.5,276.5C 700.833,276.5 700.5,276.833 700.5,277.5C 699.209,277.263 698.209,277.596 697.5,278.5C 687.887,281.258 678.554,284.592 669.5,288.5C 668.5,288.5 667.5,288.5 666.5,288.5C 666.389,287.883 666.056,287.383 665.5,287C 669.036,285.145 669.036,283.979 665.5,283.5C 666.04,282.252 666.707,281.085 667.5,280C 663.679,279.601 663.012,278.268 665.5,276C 664.768,274.235 663.435,273.068 661.5,272.5C 662.859,270.694 662.525,269.194 660.5,268C 661.214,264.485 660.214,261.319 657.5,258.5C 657.808,257.692 658.308,257.025 659,256.5C 659.893,257.711 660.726,257.711 661.5,256.5C 660.975,255.808 660.308,255.308 659.5,255C 661.997,252.74 661.33,251.407 657.5,251C 659.301,250.683 659.634,250.016 658.5,249C 660.285,247.837 662.285,247.17 664.5,247C 662.5,246.333 660.5,245.667 658.5,245C 660.5,244.667 662.5,244.333 664.5,244C 660.503,242.938 656.836,241.438 653.5,239.5 Z"/></g>
<g><path style="opacity:1" fill="#66ebe3" d="M 772.5,146.5 C 773.473,148.948 773.806,151.615 773.5,154.5C 774.5,161.167 775.5,167.833 776.5,174.5C 777.167,177.5 777.833,180.5 778.5,183.5C 780.749,196.168 786.749,206.668 796.5,215C 808.159,223.151 821.159,227.985 835.5,229.5C 841.391,230.956 847.391,231.623 853.5,231.5C 854.167,231.5 854.5,231.833 854.5,232.5C 853.761,232.369 853.094,232.536 852.5,233C 854.044,233.29 855.377,233.956 856.5,235C 853.99,235.376 851.657,236.21 849.5,237.5C 853.027,238.921 856.694,239.588 860.5,239.5C 855.75,241.031 850.75,241.698 845.5,241.5C 840.868,242.376 836.201,243.043 831.5,243.5C 799.588,247.08 781.588,264.746 777.5,296.5C 777.167,298.5 776.833,300.5 776.5,302.5C 775.656,305.345 774.99,308.345 774.5,311.5C 773.883,311.611 773.383,311.944 773,312.5C 772.503,314.81 772.337,317.143 772.5,319.5C 770.459,319.146 768.626,319.146 767,319.5C 765.806,317.377 765.14,315.043 765,312.5C 764.51,313.793 764.343,315.127 764.5,316.5C 763.532,314.393 763.198,312.059 763.5,309.5C 762.577,302.28 760.911,295.28 758.5,288.5C 757.781,286.236 757.448,283.903 757.5,281.5C 758.397,280.402 759.23,280.402 760,281.5C 761.174,285.338 763.174,288.672 766,291.5C 766.333,290.5 766.667,289.5 767,288.5C 767.219,289.938 767.719,291.271 768.5,292.5C 770.667,291.208 773,290.375 775.5,290C 775.043,289.586 774.709,289.086 774.5,288.5C 776.846,284.134 778.846,279.634 780.5,275C 780.265,274.127 779.931,273.293 779.5,272.5C 780.529,272.704 781.529,272.204 782.5,271C 781.5,270.667 780.5,270.333 779.5,270C 781.246,269.529 782.913,268.862 784.5,268C 784.167,267.667 783.833,267.333 783.5,267C 785.181,265.055 785.848,263.055 785.5,261C 788.5,259.333 791.5,257.667 794.5,256C 793.483,254.951 793.316,253.784 794,252.5C 796.071,251.897 797.238,250.564 797.5,248.5C 797.5,247.833 797.5,247.167 797.5,246.5C 798.738,247.412 800.072,247.579 801.5,247C 805.836,243.997 810.502,241.83 815.5,240.5C 815.351,239.448 815.517,238.448 816,237.5C 816.333,237.833 816.667,238.167 817,238.5C 815.688,235.564 814.021,232.564 812,229.5C 811,228.167 810,228.167 809,229.5C 808.333,226.833 807.667,226.833 807,229.5C 804.3,226.224 800.8,224.057 796.5,223C 795.663,221.989 795.33,220.822 795.5,219.5C 794.325,219.719 793.325,219.386 792.5,218.5C 792.846,217.304 793.346,217.304 794,218.5C 794.667,217.167 794.667,215.833 794,214.5C 792.333,212.833 790.667,211.167 789,209.5C 788,210.167 787,210.833 786,211.5C 784.122,205.768 780.956,200.934 776.5,197C 777.167,196.667 777.833,196.333 778.5,196C 777.234,195.691 776.067,195.191 775,194.5C 774.71,192.956 774.044,191.623 773,190.5C 770.658,191.178 768.324,190.845 766,189.5C 764.004,192.006 762.171,194.673 760.5,197.5C 758.647,197.92 756.813,198.253 755,198.5C 754.133,200.684 753.299,202.851 752.5,205C 752.755,206.326 753.422,207.326 754.5,208C 752.185,209.109 750.685,210.943 750,213.5C 749.667,213.167 749.333,212.833 749,212.5C 747.312,213.325 747.145,214.325 748.5,215.5C 744.795,217.902 742.295,221.236 741,225.5C 738.232,222.912 736.232,223.245 735,226.5C 734.586,226.043 734.086,225.709 733.5,225.5C 731.349,228.576 728.349,230.076 724.5,230C 725.654,230.914 725.487,231.747 724,232.5C 723.026,230.122 722.359,230.456 722,233.5C 720.853,232.542 719.853,232.875 719,234.5C 718.386,236.313 718.719,236.647 720,235.5C 721.577,237.847 720.743,239.347 717.5,240C 719.104,241.237 720.771,242.403 722.5,243.5C 720.345,244.001 718.678,245.001 717.5,246.5C 716.5,246.5 715.5,246.5 714.5,246.5C 706.38,245.147 698.38,243.813 690.5,242.5C 696.208,242.508 696.541,242.008 691.5,241C 692.711,240.107 692.711,239.274 691.5,238.5C 687.633,239.487 687.633,238.987 691.5,237C 687.386,234.852 687.719,233.518 692.5,233C 691.552,232.517 690.552,232.351 689.5,232.5C 696.01,230.967 702.676,229.634 709.5,228.5C 738.902,223.765 755.902,206.765 760.5,177.5C 761.853,169.38 763.187,161.38 764.5,153.5C 764.34,155.199 764.506,156.866 765,158.5C 766.106,153.231 766.773,147.897 767,142.5C 768.84,143.833 769.34,143.666 768.5,142C 769.191,140.933 769.691,139.766 770,138.5C 770.912,142.795 771.579,147.128 772,151.5C 772.494,149.866 772.66,148.199 772.5,146.5 Z"/></g>
<g><path style="opacity:1" fill="#ddfefc" d="M 680.5,241.5 C 683.833,241.833 687.167,242.167 690.5,242.5C 698.38,243.813 706.38,245.147 714.5,246.5C 711.471,248.075 708.138,249.241 704.5,250C 706.577,250.192 708.577,250.692 710.5,251.5C 706.597,253.283 706.93,254.45 711.5,255C 708.258,255.283 707.924,256.117 710.5,257.5C 709.54,258.812 709.706,260.146 711,261.5C 712.297,260.216 713.464,260.383 714.5,262C 713.542,263.147 713.875,264.147 715.5,265C 714.833,265.333 714.167,265.667 713.5,266C 714.641,266.741 714.641,267.575 713.5,268.5C 715.173,268.348 716.839,269.015 718.5,270.5C 716.371,271.203 714.371,272.203 712.5,273.5C 708.777,274.297 705.11,275.297 701.5,276.5C 698.358,276.151 695.025,275.984 691.5,276C 695.364,274.45 695.364,272.95 691.5,271.5C 693.367,268.38 692.7,265.547 689.5,263C 689.833,262 690.167,261 690.5,260C 689.833,259.667 689.167,259.333 688.5,259C 691.167,258.333 691.167,257.667 688.5,257C 688.665,255.883 688.998,254.716 689.5,253.5C 687.712,251.424 686.046,249.257 684.5,247C 685.167,246.667 685.833,246.333 686.5,246C 684.593,244.244 682.593,242.744 680.5,241.5 Z"/></g>
<g><path style="opacity:1" fill="#cefdf9" d="M 831.5,243.5 C 830.602,244.158 829.602,244.824 828.5,245.5C 831.785,246.324 835.118,246.824 838.5,247C 835.813,248.195 833.146,248.362 830.5,247.5C 827.776,249.979 825.776,252.979 824.5,256.5C 823.61,257.955 823.61,259.289 824.5,260.5C 820.992,261.411 818.992,264.078 818.5,268.5C 817.178,268.67 816.011,268.337 815,267.5C 815.333,268.833 815.667,270.167 816,271.5C 814.817,270.269 813.651,270.269 812.5,271.5C 813.571,273.325 812.904,274.492 810.5,275C 811.28,276.073 811.113,277.24 810,278.5C 805.452,282.336 800.619,286.503 795.5,291C 794.551,291.617 793.718,291.451 793,290.5C 791.992,292.259 790.492,293.426 788.5,294C 788.833,294.333 789.167,294.667 789.5,295C 786.274,296.198 783.441,298.031 781,300.5C 780.308,299.975 779.808,299.308 779.5,298.5C 780.911,296.983 780.744,295.649 779,294.5C 778.722,295.416 778.222,296.082 777.5,296.5C 781.588,264.746 799.588,247.08 831.5,243.5 Z"/></g>
<g><path style="opacity:1" fill="#c8fbf8" d="M 714.5,246.5 C 715.5,246.5 716.5,246.5 717.5,246.5C 736.375,251.701 749.709,263.368 757.5,281.5C 757.448,283.903 757.781,286.236 758.5,288.5C 757.521,289.765 756.521,291.099 755.5,292.5C 754.749,291.624 754.249,290.624 754,289.5C 752,289.5 750,289.5 748,289.5C 745.051,286.088 741.718,283.088 738,280.5C 734.754,281.913 731.92,283.913 729.5,286.5C 729.123,284.742 728.456,283.075 727.5,281.5C 727.709,280.914 728.043,280.414 728.5,280C 726.851,277.352 724.851,275.019 722.5,273C 722.645,272.228 722.978,271.561 723.5,271C 721.866,270.506 720.199,270.34 718.5,270.5C 716.839,269.015 715.173,268.348 713.5,268.5C 714.641,267.575 714.641,266.741 713.5,266C 714.167,265.667 714.833,265.333 715.5,265C 713.875,264.147 713.542,263.147 714.5,262C 713.464,260.383 712.297,260.216 711,261.5C 709.706,260.146 709.54,258.812 710.5,257.5C 707.924,256.117 708.258,255.283 711.5,255C 706.93,254.45 706.597,253.283 710.5,251.5C 708.577,250.692 706.577,250.192 704.5,250C 708.138,249.241 711.471,248.075 714.5,246.5 Z"/></g>
<g><path style="opacity:1" fill="#a7eae9" d="M 718.5,270.5 C 720.199,270.34 721.866,270.506 723.5,271C 722.978,271.561 722.645,272.228 722.5,273C 724.851,275.019 726.851,277.352 728.5,280C 728.043,280.414 727.709,280.914 727.5,281.5C 728.456,283.075 729.123,284.742 729.5,286.5C 727.777,288.218 725.777,289.551 723.5,290.5C 720.936,285.039 718.103,279.706 715,274.5C 714.329,273.748 713.496,273.414 712.5,273.5C 714.371,272.203 716.371,271.203 718.5,270.5 Z"/></g>
<g><path style="opacity:1" fill="#8adada" d="M 712.5,273.5 C 713.496,273.414 714.329,273.748 715,274.5C 718.103,279.706 720.936,285.039 723.5,290.5C 723.167,291.167 722.833,291.833 722.5,292.5C 720.668,293.248 719.001,294.248 717.5,295.5C 714.47,293.809 712.637,291.142 712,287.5C 710.16,288.833 709.66,288.666 710.5,287C 708.192,285.029 705.858,283.029 703.5,281C 704.517,279.951 704.684,278.784 704,277.5C 702.855,278.684 701.688,278.684 700.5,277.5C 700.5,276.833 700.833,276.5 701.5,276.5C 705.11,275.297 708.777,274.297 712.5,273.5 Z"/></g>
<g><path style="opacity:1" fill="#54b3b9" d="M 697.5,278.5 C 694.992,280.431 691.659,282.098 687.5,283.5C 690.619,284.792 693.619,286.292 696.5,288C 701.955,292.188 706.289,296.688 709.5,301.5C 708.5,301.833 707.833,302.5 707.5,303.5C 704.167,305.833 700.833,308.167 697.5,310.5C 695.875,308.292 693.875,307.459 691.5,308C 692.167,307.333 692.833,306.667 693.5,306C 688.799,302.238 683.799,298.904 678.5,296C 677.167,295.333 677.167,294.667 678.5,294C 674.426,293.643 671.426,291.809 669.5,288.5C 678.554,284.592 687.887,281.258 697.5,278.5 Z"/></g>
<g><path style="opacity:1" fill="#d9fdfb" d="M 758.5,288.5 C 760.911,295.28 762.577,302.28 763.5,309.5C 762.732,308.737 762.232,307.737 762,306.5C 761.692,307.308 761.192,307.975 760.5,308.5C 759.284,307.998 758.117,307.665 757,307.5C 756.333,308.167 755.667,308.833 755,309.5C 753.513,306.049 751.513,305.383 749,307.5C 748.935,305.117 748.102,304.45 746.5,305.5C 745.086,304.376 743.586,303.376 742,302.5C 740.057,302.959 738.724,301.959 738,299.5C 737.667,300.167 737.333,300.833 737,301.5C 735.899,299.606 734.566,298.939 733,299.5C 731.902,298.033 730.402,297.199 728.5,297C 729.696,296.346 729.696,295.846 728.5,295.5C 727.808,296.025 727.308,296.692 727,297.5C 726.667,296.167 726.333,294.833 726,293.5C 725.311,294.357 724.478,295.023 723.5,295.5C 723.036,294.364 722.702,293.364 722.5,292.5C 722.833,291.833 723.167,291.167 723.5,290.5C 725.777,289.551 727.777,288.218 729.5,286.5C 731.92,283.913 734.754,281.913 738,280.5C 741.718,283.088 745.051,286.088 748,289.5C 750,289.5 752,289.5 754,289.5C 754.249,290.624 754.749,291.624 755.5,292.5C 756.521,291.099 757.521,289.765 758.5,288.5 Z"/></g>
<g><path style="opacity:1" fill="#6ec8cb" d="M 697.5,278.5 C 698.209,277.596 699.209,277.263 700.5,277.5C 701.688,278.684 702.855,278.684 704,277.5C 704.684,278.784 704.517,279.951 703.5,281C 705.858,283.029 708.192,285.029 710.5,287C 709.66,288.666 710.16,288.833 712,287.5C 712.637,291.142 714.47,293.809 717.5,295.5C 715.14,297.853 712.473,299.853 709.5,301.5C 706.289,296.688 701.955,292.188 696.5,288C 693.619,286.292 690.619,284.792 687.5,283.5C 691.659,282.098 694.992,280.431 697.5,278.5 Z"/></g>
<g><path style="opacity:1" fill="#edfefd" d="M 722.5,292.5 C 722.702,293.364 723.036,294.364 723.5,295.5C 724.478,295.023 725.311,294.357 726,293.5C 726.333,294.833 726.667,296.167 727,297.5C 727.308,296.692 727.808,296.025 728.5,295.5C 729.696,295.846 729.696,296.346 728.5,297C 730.402,297.199 731.902,298.033 733,299.5C 734.566,298.939 735.899,299.606 737,301.5C 737.333,300.833 737.667,300.167 738,299.5C 738.724,301.959 740.057,302.959 742,302.5C 743.586,303.376 745.086,304.376 746.5,305.5C 748.102,304.45 748.935,305.117 749,307.5C 751.513,305.383 753.513,306.049 755,309.5C 755.667,308.833 756.333,308.167 757,307.5C 758.117,307.665 759.284,307.998 760.5,308.5C 761.192,307.975 761.692,307.308 762,306.5C 762.232,307.737 762.732,308.737 763.5,309.5C 763.198,312.059 763.532,314.393 764.5,316.5C 765.467,324.469 766.134,332.469 766.5,340.5C 764.129,337.733 762.962,334.4 763,330.5C 762.851,333.279 762.017,333.779 760.5,332C 760.833,331.667 761.167,331.333 761.5,331C 760.809,329.933 760.309,328.766 760,327.5C 759.667,329.167 759.333,330.833 759,332.5C 758.075,331.953 757.242,331.287 756.5,330.5C 757.167,330.167 757.833,329.833 758.5,329.5C 755.965,328.747 753.465,329.08 751,330.5C 749.921,328.606 748.587,328.273 747,329.5C 745.333,328.5 744,327.167 743,325.5C 741.605,326.815 740.605,326.481 740,324.5C 738.434,323.939 737.101,324.606 736,326.5C 735.667,325.5 735.333,324.5 735,323.5C 733.482,323.943 732.315,323.276 731.5,321.5C 730.808,322.025 730.308,322.692 730,323.5C 729.16,320.536 728.16,320.203 727,322.5C 724.27,321.461 721.77,319.461 719.5,316.5C 718.522,316.977 717.689,317.643 717,318.5C 716.383,317.551 716.549,316.718 717.5,316C 716.551,315.383 715.718,315.549 715,316.5C 714.333,315.167 713.667,313.833 713,312.5C 712,313.5 711,314.5 710,315.5C 708.493,312.996 706.993,310.496 705.5,308C 706.101,306.395 707.101,305.062 708.5,304C 708.272,303.601 707.938,303.435 707.5,303.5C 707.833,302.5 708.5,301.833 709.5,301.5C 712.473,299.853 715.14,297.853 717.5,295.5C 719.001,294.248 720.668,293.248 722.5,292.5 Z"/></g>
<g><path style="opacity:1" fill="#3c9ea7" d="M 666.5,288.5 C 667.5,288.5 668.5,288.5 669.5,288.5C 671.426,291.809 674.426,293.643 678.5,294C 677.167,294.667 677.167,295.333 678.5,296C 683.799,298.904 688.799,302.238 693.5,306C 692.833,306.667 692.167,307.333 691.5,308C 693.875,307.459 695.875,308.292 697.5,310.5C 694.083,313.255 690.417,315.588 686.5,317.5C 685.417,317.539 684.417,317.873 683.5,318.5C 682.403,316.771 681.237,315.104 680,313.5C 679.333,314.167 678.667,314.833 678,315.5C 677.64,313.579 676.806,311.912 675.5,310.5C 673.386,309.966 671.552,308.966 670,307.5C 669.667,307.833 669.333,308.167 669,308.5C 666.246,305.812 663.246,303.479 660,301.5C 659.667,301.833 659.333,302.167 659,302.5C 658.311,301.643 657.478,300.977 656.5,300.5C 655.304,300.846 655.304,301.346 656.5,302C 655.552,302.483 654.552,302.649 653.5,302.5C 652.923,299.355 650.923,297.855 647.5,298C 648.167,297.667 648.833,297.333 649.5,297C 649.272,296.601 648.938,296.435 648.5,296.5C 654.5,293.833 660.5,291.167 666.5,288.5 Z"/></g>
<g><path style="opacity:1" fill="#2c8e9a" d="M 648.5,296.5 C 648.938,296.435 649.272,296.601 649.5,297C 648.833,297.333 648.167,297.667 647.5,298C 650.923,297.855 652.923,299.355 653.5,302.5C 654.552,302.649 655.552,302.483 656.5,302C 655.304,301.346 655.304,300.846 656.5,300.5C 657.478,300.977 658.311,301.643 659,302.5C 659.333,302.167 659.667,301.833 660,301.5C 663.246,303.479 666.246,305.812 669,308.5C 669.333,308.167 669.667,307.833 670,307.5C 671.552,308.966 673.386,309.966 675.5,310.5C 676.806,311.912 677.64,313.579 678,315.5C 678.667,314.833 679.333,314.167 680,313.5C 681.237,315.104 682.403,316.771 683.5,318.5C 684.417,317.873 685.417,317.539 686.5,317.5C 684.704,319.9 682.37,321.567 679.5,322.5C 676.475,323.765 673.642,325.432 671,327.5C 666.948,324.28 663.115,321.947 659.5,320.5C 658.102,318.202 656.269,317.536 654,318.5C 652.887,317.24 652.72,316.073 653.5,315C 652.551,314.383 651.718,314.549 651,315.5C 650.632,314.09 649.799,313.09 648.5,312.5C 642.914,314.049 637.747,312.715 633,308.5C 630.59,311.013 628.424,310.679 626.5,307.5C 627.193,306.482 627.859,305.482 628.5,304.5C 634.874,301.321 641.54,298.654 648.5,296.5 Z"/></g>
<g><path style="opacity:1" fill="#1d808e" d="M 628.5,304.5 C 627.859,305.482 627.193,306.482 626.5,307.5C 628.424,310.679 630.59,311.013 633,308.5C 637.747,312.715 642.914,314.049 648.5,312.5C 649.799,313.09 650.632,314.09 651,315.5C 651.718,314.549 652.551,314.383 653.5,315C 652.72,316.073 652.887,317.24 654,318.5C 656.269,317.536 658.102,318.202 659.5,320.5C 663.115,321.947 666.948,324.28 671,327.5C 673.642,325.432 676.475,323.765 679.5,322.5C 675.386,326.064 671.052,329.397 666.5,332.5C 666.44,331.957 666.107,331.624 665.5,331.5C 662.441,334.53 658.774,336.197 654.5,336.5C 654.719,337.675 654.386,338.675 653.5,339.5C 650.89,339.76 648.39,339.76 646,339.5C 645.667,340.167 645.333,340.833 645,341.5C 641.542,338.529 637.542,336.529 633,335.5C 631.774,335.645 630.607,335.978 629.5,336.5C 628.468,334.96 627.135,334.46 625.5,335C 626.051,336.398 626.384,337.732 626.5,339C 625.258,339.311 624.258,338.811 623.5,337.5C 622.808,338.025 622.308,338.692 622,339.5C 621.417,337.998 620.584,336.665 619.5,335.5C 618.808,336.025 618.308,336.692 618,337.5C 615.825,336.745 613.659,335.912 611.5,335C 612.167,334.667 612.833,334.333 613.5,334C 611.484,332.066 609.484,331.733 607.5,333C 607.833,333.333 608.167,333.667 608.5,334C 607.216,334.684 606.049,334.517 605,333.5C 604.667,334.167 604.333,334.833 604,335.5C 603.385,333.884 602.385,332.551 601,331.5C 600.646,333.807 599.646,334.141 598,332.5C 596.235,333.446 594.402,334.446 592.5,335.5C 590.527,334.36 588.693,333.027 587,331.5C 586.544,332.744 587.044,333.577 588.5,334C 585.605,333.418 583.105,333.585 581,334.5C 580,331.833 579,331.833 578,334.5C 576.312,333.675 576.145,332.675 577.5,331.5C 576.271,330.719 574.938,330.219 573.5,330C 577.056,328.392 580.389,326.559 583.5,324.5C 597.923,316.686 612.923,310.02 628.5,304.5 Z"/></g>
<g><path style="opacity:1" fill="#37cec5" d="M 774.5,311.5 C 774.007,313.806 773.674,316.139 773.5,318.5C 772.363,327.127 771.696,335.794 771.5,344.5C 770.091,354.77 769.257,365.103 769,375.5C 768.188,363.825 767.355,352.158 766.5,340.5C 766.134,332.469 765.467,324.469 764.5,316.5C 764.343,315.127 764.51,313.793 765,312.5C 765.14,315.043 765.806,317.377 767,319.5C 768.626,319.146 770.459,319.146 772.5,319.5C 772.337,317.143 772.503,314.81 773,312.5C 773.383,311.944 773.883,311.611 774.5,311.5 Z"/></g>
<g><path style="opacity:1" fill="#0f7685" d="M 583.5,324.5 C 580.389,326.559 577.056,328.392 573.5,330C 574.938,330.219 576.271,330.719 577.5,331.5C 576.145,332.675 576.312,333.675 578,334.5C 579,331.833 580,331.833 581,334.5C 583.105,333.585 585.605,333.418 588.5,334C 587.044,333.577 586.544,332.744 587,331.5C 588.693,333.027 590.527,334.36 592.5,335.5C 594.402,334.446 596.235,333.446 598,332.5C 599.646,334.141 600.646,333.807 601,331.5C 602.385,332.551 603.385,333.884 604,335.5C 604.333,334.833 604.667,334.167 605,333.5C 606.049,334.517 607.216,334.684 608.5,334C 608.167,333.667 607.833,333.333 607.5,333C 609.484,331.733 611.484,332.066 613.5,334C 612.833,334.333 612.167,334.667 611.5,335C 613.659,335.912 615.825,336.745 618,337.5C 618.308,336.692 618.808,336.025 619.5,335.5C 620.584,336.665 621.417,337.998 622,339.5C 622.308,338.692 622.808,338.025 623.5,337.5C 624.258,338.811 625.258,339.311 626.5,339C 626.384,337.732 626.051,336.398 625.5,335C 627.135,334.46 628.468,334.96 629.5,336.5C 630.607,335.978 631.774,335.645 633,335.5C 637.542,336.529 641.542,338.529 645,341.5C 645.333,340.833 645.667,340.167 646,339.5C 648.39,339.76 650.89,339.76 653.5,339.5C 654.386,338.675 654.719,337.675 654.5,336.5C 658.774,336.197 662.441,334.53 665.5,331.5C 666.107,331.624 666.44,331.957 666.5,332.5C 656.031,339.572 645.365,346.406 634.5,353C 630.203,352.866 626.203,351.533 622.5,349C 617.833,348.333 613.167,348.333 608.5,349C 597.833,355.667 587.167,362.333 576.5,369C 574.639,370.028 573.305,371.528 572.5,373.5C 580.57,387.888 578.57,400.722 566.5,412C 559.347,415.951 551.681,417.451 543.5,416.5C 541.167,414.833 539.167,412.833 537.5,410.5C 535.891,406.783 533.891,403.283 531.5,400C 529.635,398.699 527.635,398.365 525.5,399C 471.587,433.642 420.92,472.642 373.5,516C 341.108,546.526 313.108,580.359 289.5,617.5C 283.6,626.288 278.434,635.622 274,645.5C 273.667,644.833 273.333,644.167 273,643.5C 272.667,645.833 272.333,648.167 272,650.5C 267.73,659.477 264.563,668.81 262.5,678.5C 256.95,699.832 255.117,721.499 257,743.5C 263.172,789.314 286.338,823.481 326.5,846C 347.708,857.045 370.042,864.211 393.5,867.5C 392.761,867.369 392.094,867.536 391.5,868C 393.441,868.304 395.107,869.137 396.5,870.5C 413.779,870.485 431.113,870.318 448.5,870C 451.167,869.667 453.833,869.333 456.5,869C 455.207,868.51 453.873,868.343 452.5,868.5C 510.013,862.273 563.346,843.773 612.5,813C 666.619,778.554 712.786,735.388 751,683.5C 746.413,697.016 740.413,710.016 733,722.5C 690.531,794.97 632.364,851.136 558.5,891C 488.57,926.92 414.57,940.587 336.5,932C 287.284,924.976 245.45,903.81 211,868.5C 176.643,827.07 162.643,779.403 169,725.5C 174.976,687.883 187.976,652.883 208,620.5C 237.545,573.597 273.045,531.43 314.5,494C 395.191,423.948 484.858,367.448 583.5,324.5 Z"/></g>
<g><path style="opacity:1" fill="#c6f3f3" d="M 537.5,410.5 C 539.167,412.833 541.167,414.833 543.5,416.5C 540.833,420.167 538.167,423.833 535.5,427.5C 535.649,426.448 535.483,425.448 535,424.5C 533.488,423.743 532.154,422.743 531,421.5C 530.184,422.823 529.017,423.489 527.5,423.5C 531.574,419.659 534.908,415.325 537.5,410.5 Z"/></g>
<g><path style="opacity:1" fill="#5bd6d6" d="M 535.5,427.5 C 514.121,456.878 494.788,487.545 477.5,519.5C 472.99,514.01 467.324,510.01 460.5,507.5C 480.552,477.77 502.886,449.77 527.5,423.5C 529.017,423.489 530.184,422.823 531,421.5C 532.154,422.743 533.488,423.743 535,424.5C 535.483,425.448 535.649,426.448 535.5,427.5 Z"/></g>
<g><path style="opacity:1" fill="#258892" d="M 443.5,507.5 C 449.023,506.289 454.69,506.289 460.5,507.5C 467.324,510.01 472.99,514.01 477.5,519.5C 483.245,527.868 484.912,536.868 482.5,546.5C 482.554,520.554 469.554,507.554 443.5,507.5 Z"/></g>
<g><path style="opacity:1" fill="#037586" d="M 443.5,507.5 C 469.554,507.554 482.554,520.554 482.5,546.5C 480.896,556.078 475.896,563.078 467.5,567.5C 467.44,566.957 467.107,566.624 466.5,566.5C 451.989,573.303 438.822,570.97 427,559.5C 425.08,556.661 423.413,553.661 422,550.5C 421.617,551.056 421.117,551.389 420.5,551.5C 415,529.83 422.667,515.163 443.5,507.5 Z"/></g>
<g><path style="opacity:1" fill="#2c8b95" d="M 467.5,567.5 C 461.545,571.589 454.878,573.255 447.5,572.5C 439.723,571.278 433.057,567.945 427.5,562.5C 424.418,559.341 422.084,555.675 420.5,551.5C 421.117,551.389 421.617,551.056 422,550.5C 423.413,553.661 425.08,556.661 427,559.5C 438.822,570.97 451.989,573.303 466.5,566.5C 467.107,566.624 467.44,566.957 467.5,567.5 Z"/></g>
<g><path style="opacity:1" fill="#5ad4d5" d="M 427.5,562.5 C 433.057,567.945 439.723,571.278 447.5,572.5C 446.935,576.537 445.601,580.203 443.5,583.5C 441.802,586.231 440.469,589.231 439.5,592.5C 438.066,593.23 436.9,594.23 436,595.5C 435.085,594.672 434.419,593.672 434,592.5C 433.282,593.451 432.449,593.617 431.5,593C 431.833,592 432.167,591 432.5,590C 430.667,590.167 428.833,590.333 427,590.5C 423.833,589.333 423.667,587.833 426.5,586C 425.584,585.626 424.75,585.126 424,584.5C 423.434,582.277 422.6,580.277 421.5,578.5C 423.039,572.973 425.039,567.639 427.5,562.5 Z"/></g>
<g><path style="opacity:1" fill="#4dc9cc" d="M 421.5,578.5 C 422.6,580.277 423.434,582.277 424,584.5C 424.75,585.126 425.584,585.626 426.5,586C 423.667,587.833 423.833,589.333 427,590.5C 428.833,590.333 430.667,590.167 432.5,590C 432.167,591 431.833,592 431.5,593C 432.449,593.617 433.282,593.451 434,592.5C 434.419,593.672 435.085,594.672 436,595.5C 436.9,594.23 438.066,593.23 439.5,592.5C 440.469,589.231 441.802,586.231 443.5,583.5C 441.401,590.67 439.068,597.67 436.5,604.5C 434.348,608.339 432.515,613.006 431,618.5C 430.505,616.527 430.338,614.527 430.5,612.5C 428.473,612.662 426.473,612.495 424.5,612C 423.167,611.333 423.167,610.667 424.5,610C 423.216,609.316 422.049,609.483 421,610.5C 419.717,607.559 418.05,604.893 416,602.5C 414.725,604.717 413.725,607.051 413,609.5C 413.036,604.887 414.203,600.554 416.5,596.5C 416.457,595.584 416.124,594.917 415.5,594.5C 416.947,588.943 418.947,583.61 421.5,578.5 Z"/></g>
<g><path style="opacity:1" fill="#38b4ba" d="M 415.5,594.5 C 416.124,594.917 416.457,595.584 416.5,596.5C 414.203,600.554 413.036,604.887 413,609.5C 413.725,607.051 414.725,604.717 416,602.5C 418.05,604.893 419.717,607.559 421,610.5C 422.049,609.483 423.216,609.316 424.5,610C 423.167,610.667 423.167,611.333 424.5,612C 426.473,612.495 428.473,612.662 430.5,612.5C 430.338,614.527 430.505,616.527 431,618.5C 432.515,613.006 434.348,608.339 436.5,604.5C 433.537,615.715 430.203,626.715 426.5,637.5C 425.153,640.663 423.986,643.996 423,647.5C 422.759,644.711 422.092,642.044 421,639.5C 420.667,639.833 420.333,640.167 420,640.5C 419.517,639.552 419.351,638.552 419.5,637.5C 417.61,637.297 416.11,637.963 415,639.5C 413.846,638.257 412.512,637.257 411,636.5C 410.667,637.167 410.333,637.833 410,638.5C 408.991,636.975 408.491,635.308 408.5,633.5C 407.5,633.5 406.5,633.5 405.5,633.5C 405.155,632.66 405.155,629.993 405.5,625.5C 408.065,614.901 411.398,604.568 415.5,594.5 Z"/></g>
<g><path style="opacity:1" fill="#145d6a" d="M 289.5,617.5 C 284.36,627.78 279.193,638.114 274,648.5C 269.844,658.482 266.011,668.482 262.5,678.5C 264.563,668.81 267.73,659.477 272,650.5C 272.333,648.167 272.667,645.833 273,643.5C 273.333,644.167 273.667,644.833 274,645.5C 278.434,635.622 283.6,626.288 289.5,617.5 Z"/></g>
<g><path style="opacity:1" fill="#27a3aa" d="M 405.5,625.5 C 405.155,629.993 405.155,632.66 405.5,633.5C 406.5,633.5 407.5,633.5 408.5,633.5C 408.491,635.308 408.991,636.975 410,638.5C 410.333,637.833 410.667,637.167 411,636.5C 412.512,637.257 413.846,638.257 415,639.5C 416.11,637.963 417.61,637.297 419.5,637.5C 419.351,638.552 419.517,639.552 420,640.5C 420.333,640.167 420.667,639.833 421,639.5C 422.092,642.044 422.759,644.711 423,647.5C 423.986,643.996 425.153,640.663 426.5,637.5C 423.96,650.64 421.293,663.64 418.5,676.5C 417.583,676.494 417.083,677.494 417,679.5C 416.505,677.527 416.338,675.527 416.5,673.5C 415.325,673.719 414.325,673.386 413.5,672.5C 414.441,672.511 415.108,672.011 415.5,671C 414.536,668.402 412.87,667.902 410.5,669.5C 408.831,668.11 407.164,667.777 405.5,668.5C 403.997,667.41 403.664,666.243 404.5,665C 402.892,664.342 401.725,664.842 401,666.5C 400.667,664.167 400.333,661.833 400,659.5C 399.111,660.888 398.611,660.722 398.5,659C 399.693,656.676 399.693,654.51 398.5,652.5C 400.636,643.429 402.969,634.429 405.5,625.5 Z"/></g>
<g><path style="opacity:1" fill="#18919c" d="M 398.5,652.5 C 399.693,654.51 399.693,656.676 398.5,659C 398.611,660.722 399.111,660.888 400,659.5C 400.333,661.833 400.667,664.167 401,666.5C 401.725,664.842 402.892,664.342 404.5,665C 403.664,666.243 403.997,667.41 405.5,668.5C 407.164,667.777 408.831,668.11 410.5,669.5C 412.87,667.902 414.536,668.402 415.5,671C 415.108,672.011 414.441,672.511 413.5,672.5C 414.325,673.386 415.325,673.719 416.5,673.5C 416.338,675.527 416.505,677.527 417,679.5C 417.083,677.494 417.583,676.494 418.5,676.5C 418.376,681.049 417.709,685.382 416.5,689.5C 416.631,688.761 416.464,688.094 416,687.5C 414.64,696.454 413.64,705.454 413,714.5C 412.64,711.572 411.307,710.906 409,712.5C 407.433,711.144 405.6,710.477 403.5,710.5C 403.587,707.402 403.087,707.068 402,709.5C 400.307,708.816 398.807,707.816 397.5,706.5C 396.667,707.5 395.833,708.5 395,709.5C 395.258,706.469 394.591,703.469 393,700.5C 392.792,704.918 392.126,709.251 391,713.5C 390.695,706.795 391.195,700.128 392.5,693.5C 392.489,691.955 392.156,690.622 391.5,689.5C 393.04,677.009 395.373,664.676 398.5,652.5 Z"/></g>
<g><path style="opacity:1" fill="#0d8591" d="M 416.5,689.5 C 414.889,705.788 414.222,722.121 414.5,738.5C 413.672,732.347 413.172,726.013 413,719.5C 412.501,725.491 412.334,731.491 412.5,737.5C 404.609,735.413 396.942,735.08 389.5,736.5C 389.428,728.699 389.095,721.033 388.5,713.5C 389.174,705.444 390.174,697.444 391.5,689.5C 392.156,690.622 392.489,691.955 392.5,693.5C 391.195,700.128 390.695,706.795 391,713.5C 392.126,709.251 392.792,704.918 393,700.5C 394.591,703.469 395.258,706.469 395,709.5C 395.833,708.5 396.667,707.5 397.5,706.5C 398.807,707.816 400.307,708.816 402,709.5C 403.087,707.068 403.587,707.402 403.5,710.5C 405.6,710.477 407.433,711.144 409,712.5C 411.307,710.906 412.64,711.572 413,714.5C 413.64,705.454 414.64,696.454 416,687.5C 416.464,688.094 416.631,688.761 416.5,689.5 Z"/></g>
<g><path style="opacity:1" fill="#027485" d="M 388.5,713.5 C 389.095,721.033 389.428,728.699 389.5,736.5C 396.942,735.08 404.609,735.413 412.5,737.5C 412.334,731.491 412.501,725.491 413,719.5C 413.172,726.013 413.672,732.347 414.5,738.5C 441.578,752.228 449.412,773.228 438,801.5C 424.276,821.63 405.776,827.797 382.5,820C 358.694,806.873 351.194,787.373 360,761.5C 365.7,749.812 374.7,741.812 387,737.5C 387.301,729.475 387.801,721.475 388.5,713.5 Z"/></g>
<g><path style="opacity:1" fill="#0d5867" d="M 393.5,867.5 C 413.14,869.523 432.807,869.856 452.5,868.5C 453.873,868.343 455.207,868.51 456.5,869C 453.833,869.333 451.167,869.667 448.5,870C 431.113,870.318 413.779,870.485 396.5,870.5C 395.107,869.137 393.441,868.304 391.5,868C 392.094,867.536 392.761,867.369 393.5,867.5 Z"/></g>
</svg>
